<svg version="1.1" xmlns="http://www.w3.org/2000/svg" xml:space="preserve">
<symbol id="questionBtn" xmlns="http://www.w3.org/2000/svg">
  <path d="M16.8175 5.31576C18.9762 2.29361 22.4615 0.5 26.1754 0.5H261.825C265.539 0.5 269.024 2.29361 271.183 5.31576L287.386 28L271.183 50.6842C269.024 53.7064 265.539 55.5 261.825 55.5H26.1754C22.4615 55.5 18.9762 53.7064 16.8175 50.6842L0.614452 28L16.8175 5.31576Z" />
</symbol>
<symbol id="questionBtnDesktop" xmlns="http://www.w3.org/2000/svg">
    <path d="M22.7172 5.28344C24.8781 2.28016 28.3521 0.5 32.052 0.5H340.948C344.648 0.5 348.122 2.28016 350.283 5.28344L372.384 36L350.283 66.7166C348.122 69.7198 344.648 71.5 340.948 71.5H32.052C28.3521 71.5 24.8781 69.7198 22.7172 66.7166L0.615976 36L22.7172 5.28344Z" />
</symbol>
    <symbol id="levelBtn" xmlns="http://www.w3.org/2000/svg">
<path d="M13.5303 3.70404C15.6719 1.64809 18.5256 0.5 21.4944 0.5H218.506C221.474 0.5 224.328 1.64809 226.47 3.70404L239.278 16L226.47 28.296C224.328 30.3519 221.474 31.5 218.506 31.5H21.4944C18.5256 31.5 15.6719 30.3519 13.5303 28.296L0.721988 16L13.5303 3.70404Z" />
</symbol>
<symbol id="levelBtnDesktop" xmlns="http://www.w3.org/2000/svg">
    <path d="M13.4526 4.63788C15.6376 2.01596 18.8742 0.5 22.2872 0.5H217.713C221.126 0.5 224.362 2.01597 226.547 4.63788L239.349 20L226.547 35.3621C224.362 37.984 221.126 39.5 217.713 39.5H22.2872C18.8742 39.5 15.6376 37.984 13.4526 35.3621L0.650853 20L13.4526 4.63788Z" />
</symbol>
    <symbol id="rotateDevice" xmlns="http://www.w3.org/2000/svg">
<g>
	<path class="st0" d="M11.1,0h35.63c3.05,0,5.85,1.25,7.85,3.25c2.03,2.03,3.25,4.8,3.25,7.85v31.46h-3.19V12.18H3.15v75.26l0,0
		h7.61v11.61c0,1.58,0.27,3.1,0.77,4.51H11.1c-3.05,0-5.85-1.25-7.85-3.25C1.22,98.27,0,95.51,0,92.45V11.1
		c0-3.05,1.25-5.85,3.25-7.85C5.28,1.22,8.04,0,11.1,0L11.1,0L11.1,0z M94.95,33.45c-0.37-5.8-2.64-10.56-6.06-13.97
		c-3.64-3.63-8.59-5.74-13.94-5.93l2.46,2.95c0.73,0.88,0.62,2.18-0.26,2.91c-0.88,0.73-2.18,0.62-2.91-0.26l-5.72-6.85l0,0
		c-0.72-0.86-0.62-2.14,0.22-2.88l6.71-5.89c0.86-0.75,2.16-0.66,2.91,0.19c0.75,0.86,0.66,2.16-0.19,2.91l-3.16,2.78
		c6.43,0.21,12.4,2.75,16.8,7.13c4.07,4.06,6.79,9.69,7.25,16.49l2.58-3.08c0.73-0.88,2.04-0.99,2.91-0.26
		c0.88,0.73,0.99,2.04,0.26,2.91l-5.73,6.84c-0.72,0.86-1.99,0.99-2.87,0.29l-6.98-5.56c-0.89-0.71-1.04-2.01-0.33-2.91
		c0.71-0.89,2.01-1.04,2.91-0.33L94.95,33.45L94.95,33.45z M122.88,59.7v35.63c0,3.05-1.25,5.85-3.25,7.85
		c-2.03,2.03-4.8,3.25-7.85,3.25h-78.9c-3.05,0-5.85-1.25-7.85-3.25c-2.03-2.03-3.25-4.8-3.25-7.85V59.7c0-3.05,1.25-5.85,3.25-7.85
		c2.03-2.03,4.79-3.25,7.85-3.25h78.9c3.05,0,5.85,1.25,7.85,3.25C121.66,53.88,122.88,56.64,122.88,59.7L122.88,59.7L122.88,59.7z
		 M35.41,77.49c0,2.51-2.03,4.57-4.57,4.57c-2.51,0-4.57-2.03-4.57-4.57c0-2.51,2.03-4.57,4.57-4.57
		C33.36,72.92,35.41,74.95,35.41,77.49L35.41,77.49L35.41,77.49z M37.88,51.75v51.49h72.82V51.75H37.88L37.88,51.75z"/>
</g>
</symbol>
</svg>